<svg width="28" height="28" viewBox="0 0 28 28" fill="none" xmlns="http://www.w3.org/2000/svg">
<path d="M4.50167 12.7883C10.3609 10.2355 14.2684 8.55214 16.2242 7.7384C21.8068 5.41667 22.966 5.01352 23.7221 5.00012C23.8896 4.99677 24.2603 5.03809 24.5016 5.23464C24.7048 5.3988 24.7607 5.62215 24.7875 5.7785C24.8143 5.93484 24.8478 6.29109 24.821 6.56916C24.5194 9.74855 23.2095 17.4619 22.5428 21.0222C22.2614 22.5275 21.7075 23.0323 21.1692 23.0826C20.0022 23.1898 19.1166 22.312 17.9864 21.5705C16.2164 20.4102 15.2169 19.6876 13.4993 18.5564C11.5149 17.2486 12.8014 16.5295 13.9326 15.3546C14.2286 15.0475 19.3712 10.3695 19.4717 9.9451C19.4829 9.89149 19.4952 9.69383 19.3779 9.58997C19.2607 9.48499 19.0876 9.52073 18.9614 9.54977C18.7834 9.58997 15.9573 11.4579 10.483 15.1536C9.67968 15.7046 8.95304 15.9729 8.30309 15.9588C7.58502 15.9432 6.2036 15.5534 5.17842 15.2195C3.91873 14.8097 2.91812 14.5941 3.00523 13.8984C3.05064 13.5366 3.54946 13.1666 4.50167 12.7883Z" fill="#ADDB2B"/>
</svg>
